HIERARCHY
ROOT Hips
{
  OFFSET 0 0 0
  CHANNELS 6 Xposition Yposition Zposition Zrotation Yrotation Xrotation
  JOINT LeftThigh
  {
    OFFSET 8.409438 0 -5.917753
    CHANNELS 3 Zrotation Yrotation Xrotation
    JOINT LeftLeg
    {
      OFFSET 0 0 -42.358652
      CHANNELS 3 Zrotation Yrotation Xrotation
      JOINT LeftFoot
      {
        OFFSET 0 0 -39.357303
        CHANNELS 3 Zrotation Yrotation Xrotation
      }
    }
  }
  JOINT RightThigh
  {
    OFFSET -8.409438 0 -5.917753
    CHANNELS 3 Zrotation Yrotation Xrotation
    JOINT RightLeg
    {
      OFFSET 0 0 -42.358652
      CHANNELS 3 Zrotation Yrotation Xrotation
      JOINT RightFoot
      {
        OFFSET 0 0 -39.357303
        CHANNELS 3 Zrotation Yrotation Xrotation
      }
    }
  }
  JOINT SpineLow
  {
    OFFSET 0 0 4.719101
    CHANNELS 3 Zrotation Yrotation Xrotation
    JOINT SpineMid
    {
      OFFSET 0 0 12.899191
      CHANNELS 3 Zrotation Yrotation Xrotation
      JOINT Chest
      {
        OFFSET 0 0 12.899191
        CHANNELS 3 Zrotation Yrotation Xrotation
        JOINT LeftShoulder
        {
          OFFSET 7.550562 1.41573 9.438202
          CHANNELS 3 Zrotation Yrotation Xrotation
          JOINT LeftArm
          {
            OFFSET 9.155056 0 4.247191
            CHANNELS 3 Zrotation Yrotation Xrotation
            JOINT LeftForearm
            {
              OFFSET 0 0 25.771955
              CHANNELS 3 Zrotation Yrotation Xrotation
              JOINT LeftHand
              {
                OFFSET 0 0 25.197169
                CHANNELS 3 Zrotation Yrotation Xrotation
              }
            }
          }
        }
        JOINT RightShoulder
        {
          OFFSET -7.550562 1.41573 9.438202
          CHANNELS 3 Zrotation Yrotation Xrotation
          JOINT RightArm
          {
            OFFSET -9.155056 0 4.247191
            CHANNELS 3 Zrotation Yrotation Xrotation
            JOINT RightForearm
            {
              OFFSET 0 0 -25.771955
              CHANNELS 3 Zrotation Yrotation Xrotation
              JOINT RightHand
              {
                OFFSET 0 0 -25.197169
                CHANNELS 3 Zrotation Yrotation Xrotation
              }
            }
          }
        }
        JOINT Neck
        {
          OFFSET 0 0 15.101124
          CHANNELS 3 Zrotation Yrotation Xrotation
          JOINT Head
          {
            OFFSET 0 0 11.325843
            CHANNELS 3 Zrotation Yrotation Xrotation
            End Site
            {
              OFFSET 0 0 14.157303
            }
          }
        }
      }
    }
  }
}
MOTION
Frames: 12
Frame Time: 0.0
0.0  89.887642  0.0  -8.280292  2.668215  -91.456513  0.817857  -27.608321  -13.786006  -5.221923  12.879092  40.704259  6.676757  2.577224  4.593738  -16.744683  4.498543  -21.728633  8.512606  -1.314635  41.813138  6.534059  1.538119  2.105427  0.008448  -3.039135  -0.256486  0.055741  -8.306972  -0.705579  0.055741  -8.306972  -0.705578  -16.648191  32.721082  4.176266  116.226547  33.053609  172.277472  -10.4605  -19.686421  49.749033  80.544944  -8.68902  9.869273  -14.23014  16.663681  17.1353  48.113945  18.154604  12.459943  -2.8194  13.84334  -49.562825  87.93027  4.256562  -5.487313  1.471638  7.615718  6.873465  1.01614  5.729198  5.129081  
0.0  89.887642  0.0  -7.636929  2.095382  -91.464612  0.948125  -26.956314  -13.872004  -5.441363  13.22111  41.124716  7.003574  2.711761  4.712774  -17.124365  5.209712  -22.842518  8.858516  -1.802981  43.101119  6.433682  1.562159  2.193859  0.049781  -2.938002  -0.17733  0.158426  -8.030313  -0.493028  0.158426  -8.030313  -0.493028  -16.377948  32.577233  4.219199  117.454122  33.740736  172.869252  -10.03748  -19.421897  50.245139  80.78369  -8.271488  10.395324  -14.160809  16.624064  17.082093  48.06256  17.902004  12.475824  -3.099156  13.539357  -49.979829  87.517065  4.164507  -5.047236  1.696986  7.657398  6.568255  1.18826  5.762086  4.897501  
0.0  89.887642  0.0  -6.870766  1.619026  -91.388361  1.066587  -26.013331  -13.903483  -5.41728  13.262028  41.594236  7.109402  2.766366  4.758983  -17.909771  5.7963  -23.922403  9.3634  -1.971478  44.211338  7.383555  2.065271  2.420694  0.091015  -2.804709  -0.145835  0.266864  -7.665795  -0.410924  0.266864  -7.665796  -0.410924  -16.189828  32.466538  4.536195  118.784929  34.595403  173.389668  -9.463124  -19.169788  50.767558  81.148118  -7.719127  10.972596  -14.220552  16.597955  17.294672  48.474413  17.680466  12.616753  -3.431404  13.129582  -50.480073  86.733976  4.040964  -4.27224  1.870545  7.657281  6.357658  1.320897  5.763177  4.737611  
0.0  89.887642  0.0  -6.066656  1.437584  -91.303692  0.902799  -24.749338  -14.003852  -5.610035  12.992907  41.791834  7.300986  2.86078  4.954483  -19.441728  6.211945  -24.887549  10.311209  -2.030769  45.006337  7.642282  2.167506  2.364882  0.098884  -2.670384  -0.124381  0.28514  -7.29868  -0.35226  0.28514  -7.298679  -0.352261  -16.352102  32.503513  4.735895  120.158724  35.472724  173.643205  -8.856447  -19.079126  51.367626  81.622901  -7.010299  11.53857  -14.41531  16.578542  17.524556  48.401374  17.485818  12.531955  -3.845545  12.435208  -51.071778  86.381427  3.929511  -3.666128  2.01165  7.706274  6.122767  1.429  5.800576  4.559684  
0.0  89.887642  0.0  -5.285467  1.637671  -91.328933  0.276681  -23.546037  -14.337564  -5.587456  12.781666  42.20197  7.586945  2.986274  5.209137  -21.372535  6.600802  -25.457823  11.473986  -2.026854  45.345668  8.016586  2.273572  2.312863  0.034177  -2.546264  -0.082248  0.102456  -6.959829  -0.229209  0.102456  -6.959829  -0.229209  -16.717815  32.642042  4.785273  121.412129  36.376727  173.579858  -8.367941  -19.138321  52.077943  82.218649  -6.082163  12.117588  -14.562715  16.566564  17.724588  48.298981  17.315275  12.468176  -4.56032  11.443077  -51.958709  86.309395  3.662094  -3.333335  2.216148  7.81578  5.827975  1.584746  5.883643  4.335746  
0.0  89.887642  0.0  -4.576437  2.277248  -91.618198  -0.095924  -22.55937  -14.556266  -6.090859  12.807631  42.356957  7.783166  2.968784  5.397109  -23.546913  7.204487  -25.482575  12.636  -2.134691  45.237447  8.271589  2.305971  2.213943  -0.111472  -2.438743  -0.020274  -0.303598  -6.666138  -0.044283  -0.303598  -6.666138  -0.044283  -17.178016  32.902463  4.851236  122.431693  37.215864  173.277911  -7.890453  -19.506132  52.750515  82.988582  -5.037471  12.759135  -14.681645  16.55819  18.053922  48.119149  17.227576  12.397791  -5.421996  9.921048  -53.063295  86.8927  3.304808  -3.165283  2.46991  7.963445  5.581124  1.776469  5.995792  4.146789  
0.0  89.887642  0.0  -3.995713  3.467957  -92.145877  -0.47397  -21.451885  -14.33049  -7.09989  12.525298  41.987234  7.915431  2.913551  5.644317  -25.516398  8.057555  -24.812142  13.434101  -2.170952  44.668861  8.41988  2.258155  2.07591  -0.350962  -2.350253  0.073986  -0.969346  -6.422941  0.237115  -0.969346  -6.42294  0.237115  -17.738669  33.216523  4.875787  123.1208  38.028384  172.783143  -7.314272  -20.267336  53.259691  83.721145  -3.883376  13.511581  -14.744159  16.526484  18.338857  47.784409  17.207114  12.294149  -6.563909  8.151604  -54.309789  88.298014  2.926042  -3.406227  2.747862  8.124713  5.355277  1.985987  6.118255  3.973047  
0.0  89.887642  0.0  -3.544309  5.246244  -92.827079  -1.274994  -20.324377  -13.986401  -8.157147  12.024658  41.430627  7.951596  2.804527  5.915865  -26.921502  9.125647  -23.336877  13.386061  -1.923812  43.617842  8.569685  2.287813  1.920046  -0.673248  -2.2893  0.167049  -1.861223  -6.252311  0.521896  -1.861223  -6.252311  0.521896  -18.271984  33.639461  5.110008  123.498086  38.919504  172.311264  -6.457794  -21.360712  53.467853  84.333918  -2.63894  14.338346  -14.774844  16.61694  18.649614  47.179638  17.261179  12.060162  -7.468857  5.964445  -55.093215  90.587567  2.963067  -3.015199  2.974841  8.338195  5.274851  2.154942  6.279983  3.908392  
0.0  89.887642  0.0  -3.314585  7.60927  -93.604476  -2.485813  -19.420888  -13.648262  -9.068569  11.445972  40.810458  7.867457  2.654584  6.134854  -27.723605  10.25476  -21.268288  12.60156  -1.490174  42.312444  8.607365  2.344662  1.704326  -1.038903  -2.272805  0.255789  -2.871576  -6.200056  0.799053  -2.871576  -6.200056  0.799053  -18.972693  34.076383  5.309064  123.50408  39.750397  171.865656  -5.22485  -22.746633  53.261716  84.85198  -1.479548  15.261193  -15.046494  16.802909  18.632508  46.314736  17.30016  11.844091  -8.371812  4.633708  -55.971113  92.269203  3.214436  -2.473268  2.982484  8.614753  5.334159  2.157124  6.487789  3.950835  
0.0  89.887642  0.0  -3.297332  10.725664  -94.421495  -4.090851  -18.770065  -13.241988  -10.031907  10.845836  39.923398  7.781546  2.498157  6.261159  -28.203782  11.172546  -18.665696  11.326737  -0.731422  40.688394  8.605436  2.424968  1.523842  -1.470698  -2.323171  0.281071  -4.058475  -6.330194  0.912136  -4.058475  -6.330194  0.912136  -19.661761  34.662516  5.476151  123.048628  40.167067  171.52634  -3.419233  -24.713368  52.498654  85.153808  -0.501433  16.481631  -15.516023  17.330893  18.331763  45.257278  17.219894  11.859725  -9.046242  3.593392  -57.529525  93.008115  3.280533  -1.452537  2.77847  9.038036  5.730518  1.994337  6.805371  4.24764  
0.0  89.887642  0.0  -3.643658  14.677737  -95.137752  -5.830526  -18.523064  -13.009397  -11.329179  10.273797  38.673577  7.644483  2.324082  6.325125  -29.111681  11.549614  -15.680874  10.304521  0.143214  38.551575  8.557188  2.450225  1.382555  -1.96339  -2.437916  0.262486  -5.409996  -6.637249  0.918183  -5.409996  -6.637249  0.918183  -20.632604  35.131539  4.856208  121.995765  39.751676  171.082952  -0.994041  -27.320414  51.086184  85.4374  0.307065  17.93774  -16.238623  18.143148  17.698448  44.08292  17.087978  11.978664  -9.706104  2.315313  -60.077909  92.596496  3.082662  -0.510608  2.285446  9.498797  6.279947  1.611924  7.14851  4.663373  
0.0  89.887642  0.0  -4.200037  19.35729  -95.224569  -7.363947  -18.599411  -13.595854  -12.894114  9.748273  37.112084  7.490177  2.090114  6.347561  -30.237401  11.261176  -12.77589  9.447843  1.117648  35.91208  8.301494  2.495199  1.21764  -2.393882  -2.599506  0.070303  -6.574322  -7.090452  0.451528  -6.574322  -7.090452  0.451528  -22.46546  35.734134  3.393985  120.35429  38.484431  170.238339  2.063552  -30.230982  48.915508  85.981332  0.822392  19.278972  -17.418304  19.262305  17.165307  42.391711  16.84469  12.127775  -9.814215  1.111197  -63.408271  90.854525  2.838789  -0.646626  1.159443  9.950482  7.041467  0.751811  7.477369  5.248711  
